{
  "accessors": [
    {
      "bufferView": 2,
      "componentType": 5126,
      "count": 4475,
      "max": [
        152.6055908203125,
        370.09796142578125,
        165.10275268554688
      ],
      "min": [
        -145.58168029785156,
        -334.1284484863281,
        -240.422607421875
      ],
      "type": "VEC3"
    },
    {
      "bufferView": 2,
      "byteOffset": 53700,
      "componentType": 5126,
      "count": 4475,
      "max": [
        1.0,
        1.0,
        1.0
      ],
      "min": [
        -1.0,
        -1.0,
        -1.0
      ],
      "type": "VEC3"
    },
    {
      "bufferView": 1,
      "componentType": 5126,
      "count": 4475,
      "max": [
        0.9913966655731201,
        0.9914467930793762
      ],
      "min": [
        0.008603318594396114,
        0.008553266525268555
      ],
      "type": "VEC2"
    },
    {
      "bufferView": 0,
      "componentType": 5125,
      "count": 18012,
      "type": "SCALAR"
    }
  ],
  "asset": {
    "extras": {
      "author": "museudocomputador (https://sketchfab.com/museudocomputador)",
      "license": "CC-BY-4.0 (http://creativecommons.org/licenses/by/4.0/)",
      "source": "https://sketchfab.com/3d-models/xerox-alto-son-of-douglas-engelbart-1973-fc49263ee9b94ea98caa11c65e663a90",
      "title": "Xerox Alto - Son of Douglas Engelbart - 1973"
    },
    "generator": "Sketchfab-12.65.0",
    "version": "2.0"
  },
  "bufferViews": [
    {
      "buffer": 0,
      "byteLength": 72048,
      "name": "floatBufferViews",
      "target": 34963
    },
    {
      "buffer": 0,
      "byteLength": 35800,
      "byteOffset": 72048,
      "byteStride": 8,
      "name": "floatBufferViews",
      "target": 34962
    },
    {
      "buffer": 0,
      "byteLength": 107400,
      "byteOffset": 107848,
      "byteStride": 12,
      "name": "floatBufferViews",
      "target": 34962
    }
  ],
  "buffers": [
    {
      "byteLength": 215248,
      "uri": "scene.bin"
    }
  ],
  "images": [
    {
      "uri": "textures/Cube_baseColor.png"
    }
  ],
  "materials": [
    {
      "doubleSided": true,
      "name": "Cube",
      "pbrMetallicRoughness": {
        "baseColorTexture": {
          "index": 0
        },
        "metallicFactor": 0.0,
        "roughnessFactor": 0.9524317153998911
      }
    }
  ],
  "meshes": [
    {
      "name": "Cube_11_Cube_0",
      "primitives": [
        {
          "attributes": {
            "NORMAL": 1,
            "POSITION": 0,
            "TEXCOORD_0": 2
          },
          "indices": 3,
          "material": 0,
          "mode": 4
        }
      ]
    }
  ],
  "nodes": [
    {
      "children": [
        1
      ],
      "matrix": [
        0.19674567878246307,
        0.0,
        0.0,
        0.0,
        0.0,
        4.368631651595913e-17,
        -0.19674567878246307,
        0.0,
        0.0,
        0.19674567878246307,
        4.368631651595913e-17,
        0.0,
        0.0,
        0.0,
        0.0,
        1.0
      ],
      "name": "Sketchfab_model"
    },
    {
      "children": [
        2
      ],
      "matrix": [
        0.009999999776482582,
        0.0,
        0.0,
        0.0,
        0.0,
        0.0,
        0.009999999776482582,
        0.0,
        0.0,
        -0.009999999776482582,
        0.0,
        0.0,
        0.0,
        0.0,
        0.0,
        1.0
      ],
      "name": "52f6125048ab45859b5d674602f1b052.fbx"
    },
    {
      "children": [
        3,
        5
      ],
      "name": "RootNode"
    },
    {
      "children": [
        4
      ],
      "matrix": [
        -0.27447118628009193,
        -0.4175222951247938,
        -0.8662220852504995,
        0.0,
        -0.12611647628447686,
        0.9086666787517437,
        -0.3980194735636215,
        0.0,
        0.9532891493726267,
        -1.1102230246251565e-16,
        -0.30205926188152854,
        0.0,
        487.955810546875,
        471.7669677734375,
        1257.3013916015625,
        1.0
      ],
      "name": "CINEMA_4D_Editor"
    },
    {
      "name": "Object_4"
    },
    {
      "children": [
        6
      ],
      "matrix": [
        1.0,
        0.0,
        0.0,
        0.0,
        0.0,
        1.0,
        0.0,
        0.0,
        0.0,
        0.0,
        1.0,
        0.0,
        104.18965148925781,
        -135.900146484375,
        92.41313171386719,
        1.0
      ],
      "name": "Cube_11"
    },
    {
      "mesh": 0,
      "name": "Cube_11_Cube_0"
    }
  ],
  "samplers": [
    {
      "magFilter": 9729,
      "minFilter": 9987,
      "wrapS": 10497,
      "wrapT": 10497
    }
  ],
  "scene": 0,
  "scenes": [
    {
      "name": "Sketchfab_Scene",
      "nodes": [
        0
      ]
    }
  ],
  "textures": [
    {
      "sampler": 0,
      "source": 0
    }
  ]
}
